<?xml version="1.0" encoding="UTF-8" standalone="no"?>
<!DOCTYPE svg PUBLIC "-//W3C//DTD SVG 1.1//EN" "http://www.w3.org/Graphics/SVG/1.1/DTD/svg11.dtd">
<svg width="100%" height="100%" viewBox="0 0 302 80" version="1.1" xmlns="http://www.w3.org/2000/svg" xmlns:xlink="http://www.w3.org/1999/xlink" xml:space="preserve" xmlns:serif="http://www.serif.com/" style="fill-rule:evenodd;clip-rule:evenodd;stroke-linejoin:round;stroke-miterlimit:2;">
    <g transform="matrix(1,0,0,1,-105.135,-88.3008)">
        <g transform="matrix(1,0,0,1,3.55271e-15,-512)">
            <g transform="matrix(1.24394,0,0,1.24394,76.7167,152.8)">
                <g transform="matrix(1,0,0,1,0,66.2381)">
                    <path d="M53.188,334.718C52.598,335.593 51.928,336.412 51.19,337.167C50.358,337.998 49.388,338.76 48.418,339.384C45.784,341.047 42.735,342.018 39.478,342.018C36.151,342.018 33.102,341.047 30.538,339.384C25.894,336.474 22.845,331.276 22.845,325.385L22.845,308.822C27.072,308.822 30.538,312.217 30.538,316.445L30.538,325.385C30.538,327.88 31.508,330.098 33.102,331.761C34.765,333.355 36.983,334.325 39.478,334.325C41.615,334.325 43.59,333.572 45.167,332.303C47.549,333.598 50.269,334.406 53.188,334.718ZM48.418,324.798L48.418,316.445C48.418,312.217 51.814,308.822 56.041,308.822L56.041,325.385C56.041,325.813 56.025,326.237 55.994,326.655L55.97,326.656C53.547,326.656 50.24,326.122 48.418,324.798Z" style="fill:white;fill-rule:nonzero;"/>
                </g>
                <g transform="matrix(1,0,0,1,0,66.2381)">
                    <path d="M55.97,326.656L55.97,324.138L56.039,324.138C56.663,315.544 63.801,308.822 72.603,308.822C81.751,308.822 89.166,316.237 89.166,325.385C89.166,334.602 81.751,342.018 72.603,342.018C69.276,342.018 66.227,341.047 63.663,339.384L63.663,357.334L55.97,357.334L55.97,334.863C59.974,334.863 63.708,333.988 66.848,332.262C68.396,333.554 70.398,334.325 72.603,334.325C77.523,334.325 81.543,330.375 81.543,325.385C81.543,320.465 77.523,316.445 72.603,316.445C67.813,316.445 63.981,320.149 63.681,324.798L63.681,324.798C61.859,326.122 58.393,326.656 55.97,326.656Z" style="fill:white;fill-rule:nonzero;"/>
                </g>
                <g transform="matrix(3.85016,0,0,3.85016,-169.23,-841.831)">
                    <path d="M75.753,316.062L75.753,324.36C75.753,324.468 75.753,324.576 75.735,324.684L75.735,324.792C75.735,324.846 75.717,324.9 75.717,324.954C75.717,324.972 75.717,324.99 75.699,325.008L75.699,325.062L75.681,325.116L75.681,325.17C75.663,325.26 75.645,325.35 75.627,325.422C75.609,325.44 75.609,325.458 75.609,325.476L75.609,325.494C75.591,325.512 75.591,325.548 75.573,325.566C75.573,325.62 75.555,325.674 75.537,325.728C75.519,325.764 75.501,325.8 75.501,325.836C75.483,325.872 75.465,325.908 75.465,325.926C75.447,325.944 75.447,325.962 75.429,325.98C75.411,326.052 75.375,326.124 75.339,326.196C75.339,326.214 75.321,326.232 75.321,326.232C75.285,326.304 75.249,326.376 75.213,326.448C75.195,326.466 75.195,326.484 75.177,326.502C75.159,326.538 75.123,326.592 75.105,326.628C75.087,326.646 75.087,326.664 75.069,326.682C75.051,326.718 75.015,326.772 74.997,326.808C74.979,326.826 74.961,326.826 74.961,326.844C74.907,326.916 74.871,326.97 74.817,327.042C74.799,327.042 74.799,327.06 74.781,327.078C74.781,327.096 74.763,327.096 74.745,327.114C74.709,327.168 74.673,327.204 74.637,327.258C74.619,327.258 74.619,327.276 74.601,327.276C74.583,327.312 74.547,327.348 74.529,327.366C74.511,327.384 74.493,327.402 74.493,327.402C74.421,327.474 74.349,327.546 74.259,327.618L74.241,327.636C74.223,327.654 74.205,327.672 74.187,327.672C74.169,327.69 74.151,327.708 74.151,327.708C74.133,327.726 74.115,327.744 74.097,327.744C74.061,327.78 74.043,327.798 74.007,327.816C73.989,327.834 73.971,327.852 73.953,327.852C73.935,327.87 73.935,327.87 73.917,327.888C73.863,327.924 73.809,327.96 73.773,327.978C73.755,327.996 73.737,328.014 73.719,328.014C73.701,328.032 73.701,328.032 73.683,328.032C73.647,328.068 73.611,328.086 73.575,328.104C73.557,328.122 73.539,328.122 73.521,328.14L73.503,328.14C73.485,328.158 73.467,328.158 73.449,328.176C73.395,328.194 73.359,328.212 73.323,328.23C73.305,328.248 73.305,328.248 73.287,328.248C73.251,328.266 73.197,328.284 73.161,328.302C73.143,328.32 73.125,328.32 73.107,328.32C73.089,328.338 73.053,328.356 73.017,328.374C72.999,328.374 72.981,328.374 72.963,328.392C72.927,328.392 72.909,328.41 72.891,328.41C72.837,328.428 72.783,328.446 72.729,328.464C72.711,328.482 72.693,328.482 72.675,328.482C72.621,328.5 72.567,328.518 72.531,328.536L72.477,328.536C72.459,328.536 72.459,328.554 72.441,328.554L72.387,328.554L72.369,328.572L72.297,328.572C72.243,328.59 72.207,328.59 72.153,328.608C72.117,328.608 72.099,328.608 72.081,328.626L71.991,328.626C71.973,328.626 71.937,328.644 71.919,328.644L71.775,328.644C71.757,328.662 71.721,328.662 71.703,328.662L71.451,328.662C70.245,328.662 69.183,328.176 68.391,327.402C68.373,327.384 68.355,327.366 68.337,327.33C68.319,327.312 68.301,327.294 68.283,327.276L68.265,327.276C68.265,327.258 68.247,327.258 68.247,327.24C68.247,327.24 68.229,327.24 68.229,327.222L69.813,326.016L69.831,326.016C69.831,326.034 69.849,326.034 69.867,326.052C69.867,326.07 69.885,326.07 69.903,326.088C69.921,326.106 69.921,326.106 69.939,326.124C69.957,326.142 69.975,326.142 69.975,326.16L69.993,326.16C69.993,326.178 70.011,326.178 70.029,326.196C70.029,326.196 70.047,326.214 70.065,326.214C70.065,326.214 70.065,326.232 70.083,326.232L70.101,326.25C70.137,326.268 70.155,326.286 70.173,326.304C70.191,326.304 70.191,326.304 70.209,326.322C70.245,326.34 70.263,326.358 70.299,326.376C70.335,326.394 70.371,326.412 70.407,326.43C70.425,326.448 70.461,326.466 70.497,326.466C70.515,326.484 70.533,326.484 70.551,326.502C70.569,326.502 70.587,326.502 70.587,326.52C70.605,326.52 70.641,326.538 70.659,326.538C70.677,326.538 70.695,326.556 70.713,326.556C70.749,326.574 70.785,326.574 70.803,326.592L70.821,326.592C70.839,326.592 70.857,326.592 70.875,326.61L70.929,326.61C70.947,326.628 70.965,326.628 70.983,326.628C71.001,326.628 71.019,326.628 71.037,326.646L71.127,326.646C71.145,326.664 71.163,326.664 71.163,326.664L71.325,326.664C71.343,326.664 71.361,326.664 71.379,326.682L71.505,326.682C71.523,326.664 71.541,326.664 71.559,326.664L71.721,326.664C71.721,326.664 71.739,326.664 71.757,326.646L71.847,326.646C71.865,326.628 71.901,326.628 71.919,326.628C71.919,326.628 71.937,326.628 71.955,326.61L71.973,326.61C72.009,326.61 72.045,326.592 72.081,326.592C72.117,326.574 72.153,326.556 72.189,326.556C72.207,326.556 72.225,326.538 72.225,326.538L72.297,326.502L72.351,326.502L72.351,326.484C72.369,326.484 72.369,326.484 72.387,326.466L72.405,326.466C72.423,326.466 72.423,326.448 72.441,326.448L72.459,326.448C72.477,326.43 72.477,326.43 72.495,326.412C72.513,326.412 72.531,326.394 72.549,326.394C72.585,326.376 72.621,326.358 72.639,326.34C72.657,326.322 72.675,326.322 72.693,326.304C72.711,326.304 72.729,326.286 72.747,326.286C72.747,326.268 72.765,326.268 72.783,326.25C72.801,326.25 72.801,326.232 72.819,326.232C72.819,326.214 72.837,326.214 72.837,326.196C72.855,326.196 72.873,326.178 72.873,326.178C72.891,326.16 72.909,326.16 72.927,326.142C72.927,326.142 72.945,326.124 72.963,326.106C73.017,326.052 73.089,325.998 73.143,325.944C73.161,325.926 73.161,325.908 73.179,325.89C73.197,325.872 73.215,325.854 73.233,325.836L73.233,325.818C73.251,325.818 73.251,325.8 73.269,325.8C73.269,325.782 73.269,325.782 73.287,325.764C73.287,325.746 73.305,325.746 73.323,325.728C73.341,325.71 73.341,325.692 73.359,325.674L73.359,325.656C73.377,325.638 73.377,325.62 73.395,325.602C73.413,325.584 73.431,325.566 73.431,325.548C73.449,325.53 73.467,325.512 73.467,325.476C73.485,325.476 73.485,325.458 73.485,325.458C73.503,325.422 73.503,325.404 73.521,325.386L73.539,325.368C73.539,325.35 73.539,325.35 73.557,325.332L73.557,325.296C73.575,325.278 73.575,325.26 73.593,325.242L73.593,325.224C73.611,325.206 73.611,325.206 73.611,325.188C73.611,325.17 73.629,325.134 73.629,325.116C73.647,325.098 73.647,325.08 73.647,325.062C73.665,325.044 73.665,325.026 73.665,325.008C73.701,324.9 73.719,324.792 73.737,324.684C73.755,324.576 73.773,324.468 73.773,324.36L73.773,324C73.089,324.432 72.297,324.684 71.451,324.684C70.587,324.684 69.795,324.432 69.129,324C68.859,323.838 68.607,323.64 68.391,323.424C68.085,323.118 67.815,322.758 67.617,322.362C67.311,321.768 67.131,321.084 67.131,320.364L67.131,316.062L69.129,316.062L69.129,320.616C69.129,320.634 69.129,320.652 69.147,320.67L69.147,320.76C69.147,320.778 69.165,320.778 69.165,320.796C69.165,320.832 69.165,320.85 69.183,320.886L69.183,320.94C69.201,320.94 69.201,320.958 69.201,320.976C69.201,320.994 69.201,321.012 69.219,321.012L69.219,321.066C69.237,321.084 69.237,321.102 69.237,321.12C69.255,321.138 69.255,321.156 69.273,321.174C69.273,321.192 69.273,321.21 69.291,321.228C69.291,321.246 69.291,321.264 69.309,321.282C69.327,321.318 69.327,321.354 69.345,321.39C69.363,321.39 69.363,321.408 69.381,321.426C69.381,321.444 69.381,321.462 69.399,321.462L69.399,321.48C69.417,321.516 69.435,321.552 69.453,321.588C69.471,321.588 69.471,321.606 69.489,321.624C69.489,321.642 69.507,321.66 69.525,321.678C69.525,321.678 69.543,321.696 69.543,321.714C69.579,321.75 69.597,321.786 69.633,321.822C69.651,321.84 69.651,321.858 69.669,321.858C69.669,321.876 69.687,321.894 69.687,321.894C69.723,321.93 69.759,321.966 69.777,322.002C69.795,322.02 69.813,322.038 69.831,322.056C69.849,322.074 69.867,322.074 69.885,322.092C69.903,322.11 69.921,322.128 69.939,322.146C69.957,322.164 69.993,322.182 70.011,322.2C70.029,322.2 70.029,322.218 70.047,322.236C70.065,322.236 70.065,322.236 70.083,322.254C70.083,322.254 70.101,322.272 70.119,322.272C70.119,322.272 70.119,322.29 70.137,322.29C70.155,322.308 70.173,322.308 70.173,322.326L70.191,322.326C70.209,322.344 70.227,322.344 70.245,322.362C70.263,322.38 70.299,322.398 70.317,322.398C70.335,322.416 70.335,322.416 70.353,322.416C70.407,322.452 70.461,322.47 70.515,322.506C70.533,322.506 70.551,322.506 70.551,322.524C70.569,322.524 70.605,322.542 70.623,322.542C70.641,322.56 70.659,322.56 70.659,322.56C70.695,322.578 70.749,322.596 70.785,322.596C70.803,322.596 70.803,322.596 70.803,322.614L70.875,322.614C70.875,322.632 70.893,322.632 70.911,322.632L70.929,322.632C70.947,322.632 70.965,322.65 70.983,322.65L71.037,322.65C71.055,322.668 71.073,322.668 71.073,322.668C71.127,322.668 71.163,322.686 71.217,322.686L71.667,322.686C71.721,322.686 71.757,322.668 71.811,322.668C71.829,322.668 71.829,322.668 71.847,322.65L71.919,322.65C71.919,322.65 71.937,322.632 71.955,322.632L71.973,322.632C71.991,322.632 72.009,322.632 72.027,322.614L72.081,322.614C72.081,322.596 72.099,322.596 72.099,322.596C72.135,322.596 72.189,322.578 72.225,322.56C72.243,322.56 72.243,322.56 72.261,322.542C72.279,322.542 72.315,322.524 72.333,322.524C72.333,322.506 72.351,322.506 72.369,322.506C72.423,322.47 72.477,322.452 72.531,322.416C72.549,322.416 72.549,322.416 72.567,322.398C72.585,322.398 72.621,322.38 72.639,322.362C72.657,322.344 72.675,322.344 72.693,322.326L72.711,322.326L72.765,322.272C72.783,322.272 72.801,322.254 72.801,322.254C72.819,322.254 72.819,322.236 72.819,322.236C72.837,322.236 72.837,322.218 72.855,322.218L72.873,322.2L72.891,322.2C72.909,322.182 72.909,322.164 72.927,322.164C72.945,322.146 72.963,322.128 72.981,322.11C72.999,322.092 73.017,322.092 73.017,322.074C73.035,322.056 73.071,322.038 73.089,322.02C73.089,322.002 73.107,321.984 73.125,321.984C73.125,321.966 73.143,321.966 73.143,321.948L73.233,321.858L73.233,321.84C73.269,321.822 73.287,321.786 73.305,321.768C73.323,321.75 73.323,321.732 73.341,321.714C73.341,321.696 73.359,321.678 73.377,321.678L73.431,321.57C73.431,321.552 73.449,321.552 73.449,321.534C73.467,321.516 73.467,321.498 73.485,321.48C73.503,321.444 73.521,321.408 73.539,321.372L73.557,321.318C73.575,321.3 73.575,321.3 73.575,321.282L73.593,321.264L73.593,321.228L73.611,321.21L73.611,321.192L73.665,321.03C73.683,321.012 73.683,321.012 73.683,320.994L73.683,320.958L73.701,320.958L73.701,320.904L73.737,320.778L73.737,320.706C73.755,320.598 73.773,320.49 73.773,320.364L73.773,316.062L75.753,316.062Z" style="fill:white;fill-rule:nonzero;"/>
                </g>
                <g transform="matrix(3.85016,0,0,3.85016,-172.695,-841.831)">
                    <path d="M81.297,316.08C81.189,316.062 81.081,316.062 80.973,316.062C80.109,316.062 79.317,316.314 78.651,316.746C77.445,317.502 76.653,318.852 76.653,320.364L76.653,324.684L78.651,324.684L78.651,320.364C78.651,319.734 78.903,319.158 79.317,318.726C79.749,318.312 80.325,318.042 80.973,318.042C81.081,318.042 81.189,318.06 81.297,318.078L81.297,316.08Z" style="fill:rgb(53,71,169);fill-rule:nonzero;"/>
                </g>
                <g transform="matrix(3.85016,0,0,3.85016,-176.16,-841.831)">
                    <path d="M86.517,322.686C85.869,322.686 85.293,322.434 84.861,322.02C84.591,321.75 84.393,321.408 84.285,321.03L90.153,321.03C90.513,321.03 90.819,320.742 90.819,320.382L90.819,320.364C90.819,319.176 90.333,318.096 89.559,317.322C88.785,316.548 87.705,316.062 86.499,316.062C84.141,316.062 82.197,318.006 82.197,320.364C82.197,321.57 82.683,322.632 83.457,323.424C84.249,324.198 85.311,324.684 86.517,324.684C86.895,324.684 87.309,324.594 87.741,324.45C88.785,324.108 89.019,322.704 88.137,322.038C87.705,322.434 87.147,322.686 86.517,322.686ZM84.861,318.726C85.293,318.312 85.869,318.042 86.517,318.042C87.147,318.042 87.723,318.312 88.155,318.726C88.425,318.996 88.623,319.338 88.731,319.716L84.285,319.716C84.393,319.338 84.591,318.996 84.861,318.726Z" style="fill:rgb(53,71,169);fill-rule:nonzero;"/>
                </g>
                <g transform="matrix(3.85016,0,0,3.85016,-179.625,-841.831)">
                    <path d="M100.341,320.364L100.341,324.684C99.243,324.684 98.361,323.802 98.361,322.686L98.361,320.364C98.361,319.734 98.091,319.158 97.677,318.726C97.245,318.312 96.669,318.042 96.039,318.042C95.391,318.042 94.815,318.312 94.383,318.726C93.969,319.158 93.717,319.734 93.717,320.364L93.717,322.686C93.717,323.802 92.817,324.684 91.719,324.684L91.719,320.364C91.719,318.852 92.511,317.502 93.717,316.746C94.383,316.314 95.175,316.062 96.039,316.062C96.885,316.062 97.677,316.314 98.361,316.746C98.613,316.908 98.865,317.106 99.081,317.322C99.855,318.096 100.341,319.176 100.341,320.364Z" style="fill:rgb(53,71,169);fill-rule:nonzero;"/>
                </g>
                <g transform="matrix(3.85016,0,0,3.85016,-183.09,-841.831)">
                    <path d="M103.239,321.03L103.239,318.042L104.553,318.042L104.553,316.062L103.239,316.062L103.239,313.074C103.239,312.534 102.789,312.084 102.231,312.084L101.241,312.084L101.241,321.03C101.241,322.038 101.655,322.956 102.303,323.622C102.897,324.198 103.689,324.594 104.553,324.666L104.553,322.668C104.229,322.596 103.941,322.434 103.725,322.2C103.491,321.984 103.329,321.696 103.257,321.372C103.239,321.264 103.239,321.156 103.239,321.03Z" style="fill:rgb(53,71,169);fill-rule:nonzero;"/>
                </g>
                <g transform="matrix(3.85016,0,0,3.85016,-186.555,-841.831)">
                    <path d="M114.057,320.04C113.985,318.978 113.517,318.024 112.815,317.322C112.041,316.548 110.961,316.062 109.755,316.062C107.397,316.062 105.453,318.006 105.453,320.364C105.453,321.57 105.939,322.632 106.713,323.424C107.505,324.198 108.567,324.684 109.773,324.684C110.619,324.684 111.411,324.432 112.095,324C112.095,324.378 112.383,324.684 112.761,324.684L114.075,324.684L114.075,320.364C114.075,320.256 114.075,320.148 114.057,320.04ZM109.809,322.686C109.143,322.704 108.549,322.452 108.117,322.02C107.703,321.588 107.451,321.012 107.451,320.364C107.451,319.734 107.703,319.158 108.117,318.726C108.549,318.312 109.125,318.042 109.773,318.042C110.403,318.042 110.979,318.312 111.411,318.726C111.843,319.158 112.095,319.752 112.095,320.418C112.059,321.66 111.051,322.668 109.809,322.686Z" style="fill:rgb(53,71,169);fill-rule:nonzero;"/>
                </g>
                <g transform="matrix(3.85016,0,0,3.85016,-190.02,-841.831)">
                    <path d="M118.287,322.668C117.963,322.596 117.675,322.434 117.459,322.2C117.225,321.984 117.063,321.696 116.991,321.372C116.973,321.264 116.973,321.156 116.973,321.03L116.973,312.084L114.975,312.084L114.975,321.03C114.975,322.038 115.389,322.956 116.037,323.622C116.631,324.198 117.423,324.594 118.287,324.666L118.287,322.668Z" style="fill:rgb(53,71,169);fill-rule:nonzero;"/>
                </g>
            </g>
        </g>
    </g>
</svg>
